<svg width="17" height="17" viewBox="0 0 17 17" fill="none" xmlns="http://www.w3.org/2000/svg">
<g id="ant-design:instagram-filled">
<path id="Vector" d="M8.49825 6.33241C7.30472 6.33241 6.3307 7.30644 6.3307 8.5C6.3307 9.69356 7.30472 10.6676 8.49825 10.6676C9.69179 10.6676 10.6658 9.69356 10.6658 8.5C10.6658 7.30644 9.69179 6.33241 8.49825 6.33241ZM14.9993 8.5C14.9993 7.60239 15.0074 6.71292 14.957 5.81694C14.9066 4.77623 14.6692 3.85261 13.9082 3.0916C13.1456 2.32896 12.2236 2.09317 11.1829 2.04276C10.2853 1.99235 9.39584 2.00048 8.49988 2.00048C7.60229 2.00048 6.71283 1.99235 5.81687 2.04276C4.77618 2.09317 3.85258 2.33058 3.09158 3.0916C2.32895 3.85424 2.09317 4.77623 2.04276 5.81694C1.99235 6.71454 2.00048 7.60402 2.00048 8.5C2.00048 9.39598 1.99235 10.2871 2.04276 11.1831C2.09317 12.2238 2.33058 13.1474 3.09158 13.9084C3.8542 14.671 4.77618 14.9068 5.81687 14.9572C6.71446 15.0076 7.60391 14.9995 8.49988 14.9995C9.39747 14.9995 10.2869 15.0076 11.1829 14.9572C12.2236 14.9068 13.1472 14.6694 13.9082 13.9084C14.6708 13.1458 14.9066 12.2238 14.957 11.1831C15.009 10.2871 14.9993 9.39761 14.9993 8.5ZM8.49825 11.8351C6.65267 11.8351 5.16319 10.3456 5.16319 8.5C5.16319 6.65438 6.65267 5.16487 8.49825 5.16487C10.3438 5.16487 11.8333 6.65438 11.8333 8.5C11.8333 10.3456 10.3438 11.8351 8.49825 11.8351ZM11.9699 5.80718C11.539 5.80718 11.191 5.4592 11.191 5.02828C11.191 4.59736 11.539 4.24938 11.9699 4.24938C12.4008 4.24938 12.7488 4.59736 12.7488 5.02828C12.7489 5.1306 12.7289 5.23195 12.6898 5.3265C12.6507 5.42106 12.5933 5.50698 12.521 5.57933C12.4486 5.65169 12.3627 5.70905 12.2681 5.74815C12.1736 5.78725 12.0722 5.80731 11.9699 5.80718Z" fill="white"/>
</g>
</svg>
