<svg width="819" height="759" viewBox="0 0 819 759" fill="none" xmlns="http://www.w3.org/2000/svg">
<path d="M547.1 316.981C548.473 284.825 523.796 254.83 500.332 262.432C476.868 270.035 457.99 292.661 455.649 314.647C453.307 336.633 492.754 324.241 510.397 331.9C528.088 339.667 546.416 332.153 547.1 316.981Z" stroke="#464646" stroke-opacity="0.6" stroke-miterlimit="10"/>
<path d="M449.5 258.444C427.284 267.69 428.82 290.008 414.506 308.658C406.14 319.62 407.192 325.612 409.554 331.281C413.405 340.292 430.851 346.094 437.616 347.863C458.19 353.435 491.191 350.631 508.592 362.139C539.422 382.399 558.935 343.86 566.723 323.98C576.741 298.585 570.745 279.674 554.825 269.316C519.117 246.445 519.077 229.664 449.5 258.444Z" stroke="#464646" stroke-opacity="0.6" stroke-miterlimit="10"/>
<path d="M518.907 229.817C506.955 214.915 476.641 231.522 424.946 240.279C385.847 246.926 395.86 290.045 371.462 319.576C346.363 350.067 365.205 354.383 392.546 362.951C423.138 372.666 481.154 369.781 509.942 392.095C553.217 425.591 575.418 355.295 589.423 330.651C609.673 295.06 598.052 275.473 577.96 261.473C557.272 247.219 527.299 240.341 518.907 229.817Z" stroke="#464646" stroke-opacity="0.6" stroke-miterlimit="10"/>
<path d="M530.863 212.367C519.04 187.262 475.604 211.662 401.108 221.469C345.823 228.693 363.328 289.424 328.716 330.012C292.023 372.824 319.747 379.559 363.023 386.378C407.348 393.378 477.195 392 512.039 421.261C567.838 468.187 593.155 366.068 613.405 336.417C644.614 290.725 628.86 268.409 602.549 252.869C576.141 237.112 538.743 228.975 530.863 212.367Z" stroke="#464646" stroke-opacity="0.6" stroke-miterlimit="10"/>
<path d="M637.214 341.38C679.284 286.036 659.314 260.772 627.141 243.658C594.835 226.603 550.278 217.59 542.946 194.591C531.596 159.667 474.599 191.642 377.653 202.461C306.258 210.443 331.292 288.437 286.49 339.823C238.692 395 275.307 404.315 333.882 408.898C392.592 413.421 473.445 413.26 514.213 449.317C582.191 509.486 610.943 375.976 637.214 341.38Z" stroke="#464646" stroke-opacity="0.6" stroke-miterlimit="10"/>
<path d="M346.831 191.522C275.82 211.479 278.674 284.956 236.962 339.541C195.163 394.295 223.11 411.388 273.787 429.503C302.378 439.703 347.873 434.216 392.185 434.048C441.174 433.871 483.467 443.67 507.224 483.616C553.699 561.897 635.86 391.885 659.089 347.99C691.64 286.602 668.683 256.793 633.652 234.303C598.486 211.873 552.805 197.364 544.61 167.72C532.466 123.769 452.154 161.988 346.831 191.522Z" stroke="#464646" stroke-opacity="0.6" stroke-miterlimit="10"/>
<path d="M317.158 180.529C246.493 211.344 226.973 281.295 188.626 339.036C152.596 393.285 171.236 421.38 215.031 449.802C245.442 469.547 305.204 456.279 363.958 451.62C425.838 446.734 479.016 454.919 501.426 517.211C533.857 607.809 662.561 407.65 682.219 353.956C706.674 287.118 679.461 252.09 641.496 224.44C603.531 196.789 556.814 176.662 547.907 140.349C534.687 87.8236 431.328 130.734 317.158 180.529Z" stroke="#464646" stroke-opacity="0.6" stroke-miterlimit="10"/>
<path d="M291.117 172.914C220.503 213.936 178.547 280.919 143.609 341.928C112.929 395.473 121.308 436.031 159.422 473.451C190.32 503.723 265.729 481.804 338.919 472.657C413.601 463.234 480.632 468.873 498.863 554.382C520.696 656.677 693.439 426.96 708.575 363.501C725.892 291.171 693.336 251.018 652.569 218.146C611.755 185.166 563.913 159.588 554.292 116.605C540.531 55.2637 413.334 101.794 291.117 172.914Z" stroke="#464646" stroke-opacity="0.6" stroke-miterlimit="10"/>
</svg>
