<svg width="180" height="184" viewBox="0 0 180 184" fill="none" xmlns="http://www.w3.org/2000/svg">
<path d="M121.517 143.859C121.577 144.012 121.607 144.179 121.601 144.346C121.611 144.483 121.593 144.621 121.546 144.75C121.499 144.878 121.426 144.995 121.33 145.092C121.112 145.275 120.831 145.363 120.549 145.336H118.791V143.412H120.555C120.688 143.411 120.821 143.424 120.952 143.448C121.072 143.47 121.192 143.515 121.294 143.585C121.399 143.659 121.482 143.76 121.535 143.878L121.517 143.862V143.859ZM135 153H45L54.4357 138.263H125.54L134.997 153H135ZM56.5783 134.944H123.41L117.021 124.966H62.9609L56.5783 134.944ZM115.218 122.125L110.65 115H69.3316L64.7639 122.125H115.218Z" fill="#2D7050"/>
<path d="M115 82C115 95.8101 104.034 107 90.5 107C76.9661 107 66 95.8101 66 82C66 68.1899 76.9661 57 90.5 57C104.034 57 115 68.1899 115 82Z" fill="#FF6B00"/>
<path d="M120.412 31.1775C120.988 31.3789 121.627 31.2085 122.032 30.7436L122.26 30.477H124.111V36.6944H121.891C121.742 36.2431 121.521 35.8208 121.237 35.4454C119.766 33.595 117.48 32.8512 115.041 32.8512C112.754 32.8512 110.75 33.5857 110.75 35.2997C110.795 35.9506 111.206 36.5209 111.8 36.7502C112.598 37.0602 113.436 37.2616 114.285 37.3391C116.235 37.6181 118.125 37.835 120.039 38.1605C121.861 38.4642 122.998 38.8268 123.934 40.0976C124.99 41.545 125.284 43.4388 124.714 45.1558C124.3 46.6219 123.364 47.8678 122.092 48.6489C121.054 49.2436 119.924 49.6464 118.752 49.8391C116.871 50.1056 114.96 50.0407 113.099 49.6469L109.979 48.9433C109.792 48.9112 109.601 48.9214 109.419 48.9733C109.236 49.0253 109.067 49.1176 108.923 49.244C108.773 49.4069 108.664 49.6062 108.608 49.8236H106.49V43.2776H108.485C109.844 46.0051 112.835 47.2139 115.83 47.3006C117.522 47.3533 119.268 47.2448 120.175 45.8315C120.327 45.5183 120.396 45.1684 120.373 44.8184C120.351 44.4683 120.238 44.131 120.045 43.8417C119.265 42.8499 117.981 42.9026 116.79 42.7786C114.6 42.5492 113.105 42.3137 113.105 42.3137C111.359 42.0037 109.559 41.6938 108.125 40.6028C107.511 40.0764 107.032 39.4029 106.729 38.6412C106.425 37.8794 106.307 37.0525 106.385 36.2326C106.472 35.4003 106.717 34.5939 107.107 33.8599C107.497 33.1258 108.023 32.4786 108.656 31.9554C109.406 31.351 110.252 30.8706 111.152 30.5359C112.634 29.9687 114.501 29.9377 116.148 30.0555C117.608 30.2188 119.039 30.5923 120.4 31.1651L120.412 31.1775ZM100.903 34.1808C100.966 34.0007 100.986 33.8076 100.961 33.6177C100.937 33.4279 100.869 33.2468 100.763 33.0898C100.657 32.9328 100.516 32.8044 100.352 32.7154C100.187 32.6264 100.005 32.5794 99.8196 32.5784H98.6794V30.4832H106.709V32.5815H106.418C106.022 32.567 105.629 32.647 105.268 32.8153C104.907 32.9836 104.589 33.2355 104.338 33.5516C103.732 34.3699 103.519 35.2997 103.123 36.1458L97.9023 49.8143H95.0759L90.5633 36.7564L85.4925 49.8143H82.9572L77.5414 33.9917C77.2413 33.2045 76.8513 32.5784 75.9992 32.5784H75.3691V30.477H84.9404V32.5753C84.3404 32.5753 83.6713 32.4885 83.2482 32.9162C82.5581 33.6725 82.9482 34.6643 83.2482 35.5105L85.5885 42.2889L90.0112 30.4832H93.6927C93.6927 30.5762 96.9542 40.0852 97.7583 42.4655L100.903 34.1808ZM67.3819 33.8709C67.5005 33.7767 67.5874 33.6465 67.6305 33.4986C67.6735 33.3507 67.6705 33.1925 67.622 33.0464C67.5719 32.8999 67.4781 32.7735 67.3541 32.6855C67.2301 32.5975 67.0822 32.5524 66.9319 32.5567H66.3798V30.4801H74.4809V32.5784H73.8899C72.7707 32.5784 71.7506 33.843 70.9314 34.5713L67.655 37.6274C68.5461 38.9291 74.631 46.0981 74.631 46.0981C75.3811 46.9039 75.8521 47.6943 77.9614 47.6943H78.3365V49.7926H66.9289V47.6943C67.748 47.6943 68.7531 47.7717 68.9571 46.8822C68.9907 46.6525 68.9701 46.4179 68.8969 46.1983C68.8238 45.9786 68.7003 45.7805 68.5371 45.6208L64.5075 40.5687L61.5761 43.3117V46.3336C61.5753 46.5117 61.6088 46.6881 61.6747 46.8527C61.7405 47.0173 61.8374 47.1666 61.9598 47.2921C62.0821 47.4176 62.2273 47.5167 62.3871 47.5836C62.5469 47.6505 62.7179 47.6839 62.8903 47.6819H63.9014V49.7833H54V47.6819C55.3022 47.6819 56.0043 47.093 56.4003 46.0888C56.5624 45.5619 56.6404 45.004 56.6344 44.4461V35.1385C56.6344 34.2707 56.6344 32.5505 55.1042 32.5505H54.006V30.4739H63.9074V32.5722H63.0913C61.6901 32.5722 61.5761 34.3172 61.5761 34.9123V39.3878L67.3819 33.8554V33.8709Z" fill="white"/>
</svg>
