<svg width="101" height="101" viewBox="0 0 101 101" fill="none" xmlns="http://www.w3.org/2000/svg">
<g clip-path="url(#clip0_58_308)">
<path d="M47.3333 15.3247H53.2C53.8667 15.3247 54.4 14.7922 54.4 14.1266C54.4 13.461 53.8667 12.9286 53.2 12.9286H47.3333V15.3247ZM47.3333 20.9156H53.3333C54.1333 20.9156 54.6667 20.3831 54.6667 19.5844C54.6667 18.7857 54.1333 18.2532 53.3333 18.2532H47.3333V20.9156ZM56.8 16.6558C57.6 17.4545 58.1333 18.5195 58.1333 19.7175C58.1333 22.1136 56.2667 23.9773 53.8667 23.9773H44.1333V10H53.7333C56 10 57.8667 11.8636 57.8667 14.1266C57.7333 15.0584 57.3333 15.9903 56.8 16.6558ZM59.0667 40.6169H55.4667L54.4 38.2208H46.5333L45.4667 40.6169H41.8667L48.8 26.6396H52L59.0667 40.6169ZM50.4 30.2338L48 35.2922H52.8L50.4 30.2338ZM55.2 43.6786H59.2L52.1333 52.7305V57.6558H48.8V52.7305L41.7333 43.6786H45.7333L50.5333 50.0682L55.2 43.6786ZM73.7333 43.6786V46.7403H64.4V49.1364H73.4667V52.1981H64.4V54.8604H73.7333V57.9221H61.0667V43.6786H73.7333ZM84 52.3312H81.4667V57.6558H78.1333V43.6786H86.6667C89.0667 43.6786 90.9333 45.6753 90.9333 48.0714C90.9333 50.0682 89.6 51.6656 87.8667 52.1981L92 57.6558H88L84 52.3312ZM86.4 46.6071H81.6V49.2695H86.4C87.2 49.2695 87.7333 48.6039 87.7333 47.9383C87.7333 47.2727 87.0667 46.6071 86.4 46.6071ZM43.2 57.6558H39.6L38.5333 55.2597H30.6667L29.6 57.6558H26L33.0667 43.6786H36.2667L43.2 57.6558ZM34.5333 47.2727L32.1333 52.3312H37.0667L34.5333 47.2727ZM13.3333 49.0032H19.2C19.8667 49.0032 20.4 48.4708 20.4 47.8052C20.4 47.1396 19.8667 46.6071 19.2 46.6071H13.3333V49.0032ZM13.3333 54.5942H19.3333C20.1333 54.5942 20.6667 54.0617 20.6667 53.263C20.6667 52.4643 20.1333 51.9318 19.3333 51.9318H13.3333V54.5942ZM22.8 50.3344C23.6 51.1331 24.1333 52.1981 24.1333 53.3961C24.1333 55.7922 22.2667 57.6558 19.8667 57.6558H10V43.6786H19.6C21.8667 43.6786 23.7333 45.5422 23.7333 47.8052C23.7333 48.737 23.3333 49.6688 22.8 50.3344ZM56.8 60.5844V63.6461H47.4667V66.0422H56.5333V69.1039H47.4667V71.7662H56.8V74.8279H44.1333V60.5844H56.8ZM54.4 82.2825C54.4 81.4838 53.8667 80.9513 53.0667 80.9513H47.3333V83.6136H53.0667C53.8667 83.6136 54.4 83.0812 54.4 82.2825ZM44 92V78.0227H53.3333C55.7333 78.0227 57.6 80.0195 57.6 82.4156C57.6 84.2792 56.5333 85.7435 54.9333 86.4091L59.2 92H55.2L51.2 86.6753H47.3333V92H44Z" fill="white"/>
<path d="M100.867 47.4334C99.2701 21.0519 77.3136 0 50.4335 0C23.5534 0 1.59684 21.0519 0 47.4334C0 48.4993 0.13307 49.5652 0.26614 50.6311C1.3307 59.425 4.65744 67.5526 9.7141 74.3478C18.8959 86.8724 33.6667 95 50.4335 95C27.0132 95 7.85112 76.7461 6.25428 53.8289C6.12121 52.763 6.12121 51.6971 6.12121 50.6311C6.12121 49.5652 6.12121 48.4993 6.25428 47.4334C7.85112 24.5161 27.0132 6.26227 50.4335 6.26227C67.2003 6.26227 81.971 14.3899 91.1528 26.9144C96.2095 33.7097 99.5362 41.8373 100.601 50.6311C100.734 51.6971 100.867 52.763 100.867 53.6957C100.867 52.6297 101 51.5638 101 50.4979C101 49.5652 101 48.4993 100.867 47.4334Z" fill="#89D329"/>
<path d="M0.13307 53.5666C1.72991 79.9481 23.6864 101 50.5665 101C77.4466 101 99.4032 79.9481 101 53.5666C101 52.5007 100.867 51.4348 100.734 50.3689C99.6693 41.575 96.3426 33.4474 91.2859 26.6522C82.1041 14.1276 67.3333 6 50.5665 6C73.9868 6 93.1489 24.2539 94.7457 47.1711C94.8788 48.237 94.8788 49.3029 94.8788 50.3689C94.8788 51.4348 94.8788 52.5007 94.7457 53.5666C93.1489 76.6171 73.9868 94.7377 50.5665 94.7377C33.7997 94.7377 19.029 86.6101 9.84717 74.0855C4.79051 67.2903 1.46377 59.1627 0.399209 50.3689C0.26614 49.3029 0.13307 48.237 0.13307 47.3043C0.13307 48.3703 0 49.4362 0 50.5021C0 51.4348 9.91447e-09 52.5007 0.13307 53.5666Z" fill="#00BCFF"/>
</g>
<defs>
<clipPath id="clip0_58_308">
<rect width="101" height="101" fill="white"/>
</clipPath>
</defs>
</svg>
