<svg width="371" height="73" viewBox="0 0 371 73" fill="none" xmlns="http://www.w3.org/2000/svg">
<path d="M34 0C34 0.492957 33.6383 0.739466 33.2766 1.10918C22.4255 12.2007 11.5744 23.2923 0.723374 34.3838C0.602807 34.507 0.361702 34.6303 0 35C0 32.5352 0.361717 30.4401 0.843986 28.345C4.46101 13.0634 17.1205 1.84853 32.312 0.246418C32.5532 0.246418 32.9149 0.246479 33.156 0C33.3971 0 33.7589 0 34 0Z" fill="#0574CE"/>
<path d="M64.7568 13.6837C63.4269 13.6837 62.4597 13.6837 61.4925 13.6837C56.1729 13.6837 50.8532 13.6837 45.5336 13.6837C44.5664 13.6837 43.9619 13.9269 43.2365 14.6562C41.5439 16.4794 39.7304 18.1811 37.6751 20.2474C38.4005 20.2474 38.8841 20.2474 39.3677 20.2474C48.798 20.2474 58.1073 20.2474 67.5375 20.2474C68.7465 20.2474 69.2301 20.7336 69.7137 21.706C70.56 23.7723 71.2854 25.9603 71.8899 28.1482C72.2526 29.3637 72.1317 29.7282 70.6809 29.7282C60.0416 29.7282 49.4025 29.7282 38.7632 29.7282C38.2796 29.7282 37.796 29.7282 37.0706 29.7282C39.3677 32.0377 41.423 34.1041 43.4783 36.1704C43.841 36.5351 44.4455 36.4135 44.9291 36.4135C53.7548 36.4135 62.5806 36.4135 71.5272 36.4135C72.7362 36.4135 73.0989 36.6566 72.978 37.8721C72.8571 40.1816 72.6153 42.3694 72.1317 44.6789C72.0108 45.6513 71.5272 45.7729 70.6809 45.7729C64.8776 45.7729 59.1953 45.7729 53.3921 45.7729C53.3921 46.3806 53.8757 46.6237 54.2384 46.9884C57.7446 50.6348 61.3715 54.1597 64.8777 57.6846C65.6031 58.4139 65.603 58.9002 64.9985 59.7511C63.5477 61.4528 61.976 63.0329 60.4043 64.613C59.558 65.3423 59.1953 65.4639 58.349 64.613C52.9085 59.0218 47.3471 53.4304 41.7857 47.8391C36.9497 42.9772 31.9928 37.9937 27.1568 33.0102C26.3105 32.1593 25.8268 32.1593 25.1014 33.0102C24.1342 34.2256 22.9253 35.198 21.8372 36.2919C21.3536 36.7781 21.2327 37.1427 21.8372 37.6289C22.8044 38.6013 23.7716 39.5738 24.7388 40.5462C33.9272 49.7839 43.1156 59.0218 52.304 68.2595C53.1503 69.1104 53.2713 69.4751 52.0623 69.9613C49.6443 71.0552 47.2262 71.906 44.6873 72.5138C43.7201 72.7569 43.2365 72.5138 42.5111 71.906C33.5645 62.9114 24.6179 53.9166 15.6712 44.8004C14.704 43.7065 14.0995 43.828 13.2532 44.8004C12.4069 45.7728 11.5606 46.6237 10.5934 47.4746C9.74711 48.2039 9.62621 48.69 10.5934 49.5409C18.0892 56.9554 25.4642 64.4915 32.8391 71.906C33.2018 72.2707 33.6854 72.5138 34.0481 73C29.4539 73 25.2224 71.9061 21.2327 69.9613C10.8353 64.9777 4.18571 56.8339 1.16321 45.6513C0.800505 44.4358 1.04235 43.7065 1.88865 42.8556C15.5504 29.2421 29.0912 15.6286 42.632 1.89348C43.4783 1.04264 44.2037 0.799417 45.4127 1.16407C52.5459 3.10886 58.5908 6.75547 63.6687 12.2252C63.9105 12.7114 64.1523 13.076 64.7568 13.6837Z" fill="#0272CE"/>
<path d="M149.056 6C156.147 6.2409 162.277 8.40896 165.762 15.0336C171.17 24.9103 166.964 40.5687 151.099 41.8936C145.33 42.3754 140.042 41.2913 135.715 37.1961C130.187 31.8964 128.865 25.3922 130.908 18.2858C132.951 11.2998 137.999 7.68633 144.85 6.3614C146.412 6.12051 147.734 6 149.056 6ZM155.787 24.1876C155.787 21.8991 155.306 20.2128 154.104 18.7675C150.739 14.9131 144.609 16.2381 142.927 21.056C141.845 24.4286 142.806 28.1624 145.33 30.0896C147.373 31.6554 149.657 31.7759 151.941 30.6919C154.705 29.3669 155.666 26.8375 155.787 24.1876Z" fill="white"/>
<path d="M189.446 29.744C189.446 33.4493 189.446 37.0308 189.446 40.736C189.446 41.8476 189.2 42.0946 188.092 41.9711C185.015 41.8476 181.938 41.9711 178.985 41.9711C178.246 41.9711 178 41.8477 178 40.9831C178 29.991 178 18.999 178 8.13037C178 7.51283 178 7.01878 178.862 7.01878C184.769 7.14228 190.554 6.7717 196.462 7.26573C197.692 7.38924 198.8 7.63622 199.908 8.00674C203.969 9.48882 206.554 12.206 207.046 16.5287C207.538 21.3455 206.062 25.1742 201.631 27.5209C201.508 27.6444 201.385 27.6443 201.262 27.7678C204.092 32.3376 207.046 37.0309 210 41.8476C205.446 41.8476 201.262 41.8476 196.954 41.8476C196.215 41.8476 196.092 41.2301 195.846 40.736C194 37.2778 192.154 33.9432 190.308 30.4851C190.185 30.1145 189.938 29.8675 189.815 29.4969C189.692 29.6205 189.569 29.744 189.446 29.744ZM189.323 18.8754C189.323 22.0866 189.446 22.0866 192.646 21.7161C193.138 21.5926 193.631 21.469 194 21.3455C194.862 20.975 195.477 20.3575 195.477 19.3695C195.6 17.5169 194.862 16.5288 192.892 16.2818C189.446 15.7878 189.323 15.9112 189.323 18.8754Z" fill="white"/>
<path d="M363.878 41.7873C359.978 41.7873 356.078 41.7873 352.178 41.7873C351.569 41.7873 351.325 41.6644 351.203 41.0498C350.837 39.8205 350.35 38.7143 349.984 37.608C349.741 36.8705 349.375 36.7475 348.766 36.7475C345.719 36.7475 342.672 36.7475 339.747 36.7475C339.137 36.7475 338.772 36.8703 338.65 37.485C338.65 37.6079 338.65 37.7309 338.528 37.7309C338.041 39.0831 338.041 40.804 337.066 41.5415C336.091 42.402 334.384 41.7873 332.922 41.7873C330.241 41.7873 327.681 41.7873 325 41.7873C325.122 40.4351 325.731 39.3289 326.219 38.2226C330.119 28.1429 334.019 18.1861 337.919 8.10634C338.284 7.24588 338.65 7 339.503 7C342.916 7 346.328 7 349.741 7C350.35 7 350.838 7.12289 351.081 7.73751C355.347 18.9236 359.734 30.1097 364 41.2957C363.878 41.4186 363.756 41.4185 363.878 41.7873ZM344.256 19.2924C343.281 22.2425 342.428 24.8238 341.453 27.6511C343.038 27.6511 344.5 27.6511 345.962 27.6511C346.937 27.6511 346.937 27.4053 346.572 26.6678C345.841 24.3322 345.109 21.9967 344.256 19.2924Z" fill="white"/>
<path d="M286.246 7C290.304 7 294.485 7 298.544 7C299.527 7 299.527 7.60071 299.773 8.20142C301.495 14.5689 303.217 20.8162 304.939 27.1837C304.939 27.424 305.061 27.5442 305.184 28.1449C306.045 24.7809 306.906 21.7773 307.644 18.7738C308.628 15.1695 309.489 11.5654 310.473 8.0813C310.595 7.60074 310.472 7 311.333 7C315.515 7 319.696 7 324 7C322.647 10.6042 321.417 14.2085 320.065 17.6926C317.359 25.0213 314.531 32.4699 311.825 39.7986C311.456 40.7597 311.087 41 310.104 41C306.537 40.8799 302.971 41 299.282 41C298.667 41 298.298 40.8799 297.929 40.1591C293.993 29.2262 290.058 18.2933 286 7.24022C286.123 7.24022 286.123 7.24028 286.246 7Z" fill="white"/>
<path d="M254.163 24.0601C254.163 18.7738 254.163 13.6078 254.163 8.32153C254.163 7.3604 254.41 7 255.399 7C262.566 7 269.856 7 277.023 7C277.888 7 278.258 7.12002 278.258 8.08116C278.135 10.6041 278.135 13.1272 278.258 15.53C278.258 16.371 277.888 16.4911 277.147 16.4911C273.563 16.4911 269.98 16.4911 266.52 16.4911C265.161 16.4911 265.284 17.212 265.284 18.053C265.284 18.894 265.16 19.4946 266.396 19.4946C269.609 19.3745 272.945 19.4946 276.158 19.4946C277.146 19.4946 277.394 19.7349 277.394 20.696C277.27 22.9787 277.394 25.2615 277.394 27.4241C277.394 28.2651 277.146 28.5052 276.281 28.5052C273.069 28.5052 269.856 28.6254 266.643 28.5052C265.037 28.3851 265.16 29.2261 265.16 30.1873C265.16 31.1484 265.284 31.7492 266.52 31.629C270.227 31.5089 274.057 31.6289 277.764 31.5088C278.753 31.5088 279 31.7491 279 32.7102C278.876 35.113 279 37.6361 279 40.039C279 40.8799 278.753 41 277.888 41C270.227 41 262.689 41 255.028 41C254.04 41 253.916 40.5194 254.04 39.7986C254.163 34.6325 254.163 29.3463 254.163 24.0601Z" fill="white"/>
<path d="M117.087 28.5872C119.378 31.2332 121.548 33.8793 123.719 36.405C124.322 37.1267 123.839 37.2469 123.357 37.6078C120.584 40.0132 117.328 41.4565 113.711 41.8174C107.199 42.539 101.291 41.2159 96.7089 36.1644C91.7652 30.7521 90.9212 24.3775 93.2122 17.6422C95.3826 11.1474 100.326 7.53928 107.079 6.33654C112.746 5.37435 118.051 6.4567 122.875 9.82437C123.839 10.4257 124.08 10.9069 123.116 11.8691C121.186 14.034 119.378 16.3193 117.569 18.4842C117.087 19.0856 116.846 19.2058 116.122 18.6044C113.952 16.5598 110.576 16.0786 107.923 17.5219C105.27 18.8449 103.944 21.8518 104.426 25.2195C104.788 28.1061 106.838 30.3913 109.611 30.9927C112.746 31.7143 115.158 30.7522 117.087 28.5872Z" fill="white"/>
<path d="M230.5 7.12321C234.924 7.12321 239.225 7.12321 243.648 7.12321C244.631 7.12321 245 7.24645 245 8.35561C244.877 10.8204 244.877 13.4084 245 15.8732C245 16.8591 244.631 17.1056 243.771 17.1056C241.805 16.9824 239.839 17.1056 237.873 17.1056C236.767 17.1056 236.398 17.3521 236.398 18.4612C236.521 25.8556 236.398 33.25 236.398 40.6444C236.398 41.7536 236.153 42 235.047 42C232.097 41.8768 229.025 41.8768 226.076 42C224.97 42 224.602 41.7536 224.602 40.6444C224.725 33.25 224.602 25.8556 224.602 18.4612C224.602 17.3521 224.356 16.9824 223.25 17.1056C221.161 17.2288 219.072 17.1056 217.106 17.1056C216.246 17.1056 216 16.8591 216 15.9964C216 13.4084 216.123 10.8203 216 8.10904C216 7.12312 216.369 7 217.229 7C221.653 7.12324 226.076 7.12321 230.5 7.12321Z" fill="white"/>
<path d="M120.148 55.5765C120.394 54.4529 121.505 53.9535 122.616 54.3281C123.11 54.4529 122.986 54.8275 122.986 55.202C122.986 59.0721 122.986 62.9421 122.863 66.937C122.739 69.309 121.382 70.8071 119.284 71.5562C116.568 72.5549 112.989 71.8058 111.508 69.9332C111.261 69.5587 110.52 69.0593 111.261 68.8096C112.001 68.4351 112.619 67.0618 113.606 68.1854C114.223 68.8096 114.964 69.1841 115.704 69.4338C118.666 70.058 120.518 68.4352 120.271 65.1893C118.79 66.4377 117.185 67.1867 115.457 66.8122C113.606 66.5625 112.248 65.6886 111.137 64.1905C109.286 61.5689 109.78 57.9484 112.001 55.7013C114.223 53.4541 117.185 53.4542 120.148 55.5765ZM120.271 60.4453C120.271 58.1982 118.543 56.5752 116.321 56.7001C114.223 56.7001 112.619 58.4478 112.619 60.5701C112.619 62.6924 114.346 64.4402 116.568 64.3153C118.666 64.1905 120.271 62.4428 120.271 60.4453Z" fill="white"/>
<path d="M104.214 55.6811C103.969 53.9425 105.196 54.4393 106.054 54.3151C107.404 54.1909 106.913 55.3086 106.913 55.9295C106.913 59.0341 106.913 62.1386 106.913 65.2432C106.913 65.8641 107.281 66.7333 106.054 66.6091C105.196 66.4849 103.969 67.1059 104.214 65.119C102.742 66.6092 101.147 67.1059 99.4298 66.9817C97.835 66.8575 96.4856 66.1124 95.5041 64.8706C93.4187 62.3869 93.5413 58.4131 95.6268 56.0537C98.0803 53.4459 101.147 53.3216 104.214 55.6811ZM100.411 64.3738C102.619 64.3738 104.214 62.7595 104.214 60.5242C104.214 58.2889 102.619 56.5504 100.411 56.5504C98.3257 56.5504 96.7309 58.289 96.6082 60.4C96.7309 62.6353 98.3257 64.2496 100.411 64.3738Z" fill="white"/>
<path d="M177.017 60.7125C178.154 63.4426 181.061 64.3112 183.335 62.698C183.588 62.4498 183.841 61.8293 184.473 62.2016C185.104 62.5739 185.736 62.698 186.115 63.1944C186.495 63.6908 185.863 64.0631 185.484 64.3113C183.462 66.1727 179.923 66.5449 177.269 65.1799C174.868 63.9389 173.605 61.2089 174.11 58.3547C174.742 55.0042 177.649 52.7706 181.061 53.0188C184.473 53.267 186.874 55.997 187 59.3475C187 60.2162 186.874 60.7125 185.736 60.7125C182.83 60.7125 179.923 60.7125 177.017 60.7125ZM180.555 58.4788C181.44 58.4788 182.324 58.4788 183.083 58.4788C184.094 58.4788 184.22 58.1066 183.714 57.3621C182.956 56.1211 181.945 55.6247 180.429 55.6247C179.039 55.6247 177.901 56.2452 177.269 57.4861C176.764 58.2307 177.017 58.4788 177.901 58.4788C178.786 58.4788 179.671 58.4788 180.555 58.4788Z" fill="white"/>
<path d="M219.963 60.7501C220.973 63.4605 224.002 64.3229 226.273 62.7213C227.03 62.2285 228.545 62.3517 229.05 63.091C229.428 63.5838 228.923 63.8301 228.671 64.0765C226.778 65.9245 224.506 66.2941 221.982 65.8013C219.584 65.3085 218.07 63.8301 217.313 61.6124C216.303 58.4092 217.817 54.9595 220.72 53.6043C223.749 52.2491 227.283 53.2347 228.924 55.9452C229.176 56.438 229.428 56.9309 229.555 57.4237C230.438 60.2573 230.186 60.6269 227.157 60.6269C224.759 60.7501 222.361 60.7501 219.963 60.7501ZM223.371 58.5324C224.254 58.5324 225.137 58.5324 225.895 58.5324C226.778 58.5324 227.03 58.2861 226.652 57.5469C225.895 56.1916 224.759 55.5756 223.118 55.6988C221.604 55.822 220.594 56.5612 219.963 57.7932C219.711 58.286 219.837 58.5324 220.468 58.5324C221.477 58.5324 222.361 58.5324 223.371 58.5324Z" fill="white"/>
<path d="M191.83 55.4586C193.031 54.1995 194.473 53.8218 196.035 54.0736C198.198 54.3255 199.76 55.8363 199.88 58.1026C200 60.7466 200 63.3907 200 66.1606C200 67.4197 199.039 66.7901 198.558 66.9161C198.078 67.042 197.357 67.1679 197.357 66.1606C197.357 64.0202 197.357 61.8799 197.357 59.6136C197.357 57.725 196.516 56.7177 194.954 56.7177C193.151 56.5917 191.95 57.7248 191.83 59.4875C191.71 61.502 191.71 63.6425 191.83 65.657C191.83 66.7901 191.349 66.9161 190.508 66.9161C189.667 66.9161 189.066 66.9161 189.066 65.657C189.186 62.3834 189.066 58.9839 189.066 55.7103C189.066 55.2067 188.706 54.3254 189.667 54.4513C190.508 54.4513 191.83 53.57 191.83 55.4586Z" fill="white"/>
<path d="M210.299 67C206.57 67 203.96 65.1346 203.214 62.3989C202.468 59.4144 203.711 56.3056 206.322 54.8134C209.056 53.3211 212.412 53.9429 214.277 56.1812C214.525 56.5543 215.396 57.0517 214.65 57.4247C213.904 57.7978 213.407 59.1657 212.164 57.9222C210.672 56.3056 208.31 56.3056 206.819 57.7979C205.327 59.2901 205.327 61.7772 206.819 63.2694C208.31 64.7617 210.672 64.7615 212.164 63.1449C213.282 61.9014 214.028 63.145 214.65 63.5181C215.52 64.0155 214.525 64.6372 214.277 65.0102C213.034 66.3781 211.418 67 210.299 67Z" fill="white"/>
<path d="M153 59.4778C153 56.6175 154.608 54.3789 157.206 53.384C159.68 52.5135 162.648 53.1353 164.257 55.1251C164.504 55.4982 165.494 55.9956 164.504 56.4931C163.885 56.8662 163.267 58.1098 162.154 56.9906C160.546 55.3738 158.319 55.3739 156.835 56.8662C155.474 58.3586 155.474 60.8457 156.835 62.2137C158.319 63.7061 160.669 63.7061 162.154 62.0894C163.267 60.8458 164.009 62.0895 164.628 62.4626C165.494 62.96 164.628 63.5818 164.257 63.9549C162.525 65.9447 159.68 66.5666 157.082 65.4473C154.484 64.5768 153 62.2138 153 59.4778Z" fill="white"/>
<path d="M145.603 67C144.335 67 142.687 66.496 141.545 65.1101C141.292 64.7322 140.531 64.1022 141.419 63.8502C142.053 63.5983 142.687 62.0863 143.574 63.3463C144.335 64.3542 145.35 64.6062 146.491 64.4802C147.125 64.3542 147.759 64.2282 148.012 63.4722C148.139 62.5903 147.505 62.3383 146.871 62.0863C146.11 61.8344 145.35 61.5824 144.589 61.3304C142.179 60.5745 141.165 59.1885 141.419 57.4246C141.672 55.4088 143.194 54.1489 145.603 54.0229C147.252 53.8969 148.773 54.2749 149.915 55.5348C150.295 55.9127 151.056 56.4167 150.422 56.7947C149.788 57.1726 149.027 58.4326 148.012 57.2987C147.378 56.6687 146.618 56.4168 145.603 56.5427C144.969 56.6687 144.462 56.9208 144.335 57.5507C144.208 58.1807 144.716 58.5586 145.223 58.8106C145.984 59.0626 146.618 59.3146 147.378 59.5665C150.168 60.4485 151.309 61.7084 150.929 63.8502C150.802 65.7401 148.9 67 145.603 67Z" fill="white"/>
<path d="M128.959 55.8258C129.853 54.7657 130.62 54.2945 131.514 54.1767C132.025 54.0589 132.791 53.7055 132.791 54.5301C132.791 55.2369 133.558 56.4148 132.153 56.7682C129.342 57.5927 128.959 57.946 128.959 60.773C128.959 62.1866 128.831 63.6002 128.959 65.0137C129.087 66.1916 128.32 65.956 127.554 65.956C126.915 65.956 126.021 66.3094 126.021 65.0137C126.149 61.8333 126.021 58.6529 126.021 55.5903C126.021 54.8835 125.765 54.0588 127.043 54.2944C128.193 54.2944 129.47 53.8233 128.959 55.8258Z" fill="white"/>
<path d="M138.987 59.9852C138.987 61.6547 138.851 63.3243 138.987 64.9939C138.987 66.0672 138.444 66.0671 137.629 65.9478C136.95 65.9478 136 66.1864 136 64.9939C136.136 61.6548 136.136 58.3157 136 54.9766C136 53.7841 136.815 54.0226 137.493 54.0226C138.172 54.0226 139.123 53.7841 138.987 54.8574C138.851 56.6462 138.987 58.3157 138.987 59.9852Z" fill="white"/>
<path d="M171 60.0591C171 61.7415 170.864 63.3038 171 64.9861C171 66.0677 170.455 66.0676 169.636 65.9474C168.955 65.8272 168 66.308 168 65.1063C168.136 61.7416 168 58.2567 168 54.8919C168 53.6902 168.955 54.0507 169.5 54.0507C170.182 54.0507 171 53.8104 171 54.8919C170.864 56.5743 171 58.2566 171 60.0591Z" fill="white"/>
<path d="M366.114 9.45751C366.114 10.0354 366.114 10.7288 366.114 11.3066C366.114 11.6533 366.234 12 365.633 12C364.912 12 365.032 11.6533 365.032 11.1911C365.032 10.0354 365.032 8.9952 365.032 7.8395C365.032 7.49279 364.791 6.91499 365.633 7.03056C366.114 7.03056 366.835 6.79942 367.076 7.60842C367.316 8.30184 367.557 8.99515 367.917 9.80414C368.519 9.22629 368.639 8.53289 368.759 7.95504C368.999 6.91491 369.721 7.03054 370.442 7.14611C371.284 7.26168 370.923 7.9551 370.923 8.30181C371.043 9.34194 370.923 10.382 370.923 11.3066C370.923 11.8845 370.803 12 370.202 12C369.601 12 369.721 11.6533 369.721 11.1911C369.721 10.6132 369.721 9.91971 369.601 9.22629C369.36 9.80414 369.24 10.2664 369 10.8443C368.759 11.191 368.879 11.8845 368.158 11.8845C367.316 11.8845 367.436 11.3066 367.316 10.8443C367.076 10.2664 366.835 9.80414 366.715 9.22629C366.234 9.45743 366.114 9.45751 366.114 9.45751Z" fill="white"/>
<path d="M136.444 52C135.563 51.8929 134.902 51.3571 135.012 50.3928C135.122 49.5356 135.673 49 136.554 49C137.546 49 138.096 49.6429 137.986 50.6072C137.876 51.4643 137.325 52 136.444 52Z" fill="white"/>
<path d="M361.11 7.02889C361.344 7.02889 361.696 7.02889 361.93 7.02889C362.282 7.1445 362.868 6.68209 362.985 7.49135C363.102 8.30062 362.516 8.0694 362.047 8.0694C361.461 8.0694 361.578 8.53178 361.578 8.87861C361.578 9.68787 361.578 10.4971 361.578 11.3064C361.578 11.7688 361.461 12 360.992 12C360.524 12 360.406 11.7688 360.406 11.3064C360.406 10.7283 360.406 10.1503 360.406 9.68782C360.406 8.99416 360.875 7.95379 359.352 8.0694C359 8.0694 359 7.83815 359 7.60693C359 7.26011 359 7.02889 359.469 7.02889C360.055 7.02889 360.524 7.02889 361.11 7.02889Z" fill="white"/>
<path d="M171 50.3928C170.889 51.4643 170.444 52 169.444 52C168.556 52 168 51.4644 168 50.5001C168 49.5358 168.556 49 169.556 49C170.444 49 170.889 49.6428 171 50.3928Z" fill="white"/>
</svg>
