<svg width="365" height="96" viewBox="0 0 365 96" fill="none" xmlns="http://www.w3.org/2000/svg">
<g clip-path="url(#clip0_58_338)">
<path d="M364.819 47.6504C361.294 53.4076 356.414 56.6974 349.364 55.8749C342.494 55.0525 337.704 50.3919 337.071 43.5382C336.439 36.8672 340.054 30.9273 346.11 28.9169C352.979 26.5409 360.3 28.9169 363.554 34.4913C364.006 35.2223 363.825 36.3189 364.91 36.6845C364.91 37.3241 364.91 37.8724 364.91 38.5121C361.475 38.0552 357.498 40.3398 354.515 36.9586C352.979 35.2223 351.262 34.7654 349.364 36.0448C347.104 37.5069 346.291 43.1727 347.827 46.1883C348.821 48.1987 350.539 48.9298 352.708 48.3815C352.979 48.2901 353.341 48.1987 353.521 48.016C356.323 43.0813 360.933 45.0003 365 45.0003C364.819 45.8228 364.819 46.7366 364.819 47.6504Z" fill="white"/>
<path d="M9.57419 61C5.6 57.284 3.43226 52.571 1.71613 47.5861C1.26452 46.3172 1.44516 44.5952 0 43.6888C0 39.429 0 35.2598 0 31C4.96774 31.8157 9.2129 34.9879 14.271 35.5317C14.3613 45.5921 19.1484 52.7523 28 57.284C27.3677 60.003 25.2 60.003 23.1226 60.003C18.6065 60.003 14 59.7311 9.57419 61Z" fill="#288E54"/>
<path d="M28.5259 0C29.4272 0 30.3286 0 31.23 0C31.1398 5.05747 32.9426 10.023 31.3201 15.0805C25.9119 16.5517 21.4951 19.6782 17.8896 24C13.2025 22.8966 8.51536 21.977 5 18.2069C7.97453 11.8621 12.9321 7.54023 18.8812 4.41379C21.9458 2.75862 25.2809 1.47126 28.5259 0Z" fill="#288E54"/>
<path d="M32.0927 15.2165C33.7029 10.1134 31.9138 5.10309 32.0033 0C35.5815 0 39.1598 0 42.738 0C43.2748 1.48454 44.4377 0.835052 45.4217 1.02062C46.5847 1.6701 47.8371 2.2268 49 2.87629C47.6582 7.79381 47.9265 12.9897 47.1214 18C42.3802 15.5876 37.3707 14.3814 32.0927 15.2165Z" fill="#288E54"/>
<path d="M0 30.4398C2.13861 26.4817 2.13861 21.4869 5.25743 18C8.73267 21.8639 13.3663 22.8063 18 23.8429C15.9505 27.6126 14.5248 31.6649 14.0792 36C9.08911 35.5288 4.90099 32.2304 0 31.3822C0 31.0995 0 30.7225 0 30.4398Z" fill="#288E54"/>
<path d="M10 61.8682C14.4824 60.589 19.1478 60.8631 23.8132 60.7717C25.9172 60.7717 28.1126 60.7717 28.753 58.0306C42.932 61.2286 53.7264 55.8377 57.477 43.6854C58.7577 39.6651 58.2088 35.5534 58.0259 31.5331C62.3253 29.3402 62.3253 24.9544 63.5146 21.2081C64.0634 19.2894 63.606 17.0051 66.0759 16C81.4442 39.1168 68.7288 62.7819 52.2628 70.4571C37.5348 77.4013 20.0626 73.9292 10 61.8682Z" fill="#288E54"/>
<path d="M114.341 34.6151C119.426 38.3787 120.879 41.9587 119.517 47.0993C118.336 51.5973 114.432 54.5348 108.348 54.8102C102.173 55.0856 95.9988 54.8102 89.7334 54.9938C87.4634 55.0856 86.9186 54.1676 87.0094 52.0563C87.1002 41.6833 87.1002 31.3104 87.0094 20.8457C87.0094 19.0098 87.2818 18 89.461 18C95.8172 18.1836 102.173 17.8164 108.53 18.2754C115.431 18.8262 118.609 22.7734 118.064 28.5565C117.701 31.3104 115.885 32.8709 114.341 34.6151ZM102.9 46.3649C105.17 46.1814 108.984 47.0075 108.802 42.6931C108.62 38.4705 104.807 39.572 102.083 39.2967C99.2677 39.0213 97.8149 39.4802 97.7241 43.0603C97.6333 47.1911 100.176 46.2731 102.9 46.3649ZM101.992 32.3202C104.353 32.2284 107.349 32.5956 107.349 29.5663C107.349 25.8944 103.989 26.6288 101.538 26.3534C99.1769 26.1698 97.6333 26.4452 97.7241 29.5663C97.8149 33.4217 100.357 32.0448 101.992 32.3202Z" fill="white"/>
<path d="M185.454 30.1539C195.24 25.1455 201.702 29.0409 201.887 40.0779C201.887 44.2516 201.702 48.4253 201.979 52.599C202.163 55.3814 201.148 56.2162 198.563 55.9379C197.363 55.8452 196.07 55.7524 194.87 55.9379C191.916 56.3089 191.178 55.0104 191.362 52.228C191.639 48.518 191.455 44.8081 191.455 41.0982C191.455 38.7795 190.993 36.5535 188.131 36.5535C185.085 36.5535 184.346 38.594 184.346 41.1909C184.346 44.9009 184.161 48.6108 184.438 52.3207C184.623 55.2887 183.607 56.2162 180.838 55.8452C179.453 55.6597 178.068 55.7524 176.684 55.8452C174.837 55.9379 173.914 55.3814 174.006 53.2482C174.099 46.0138 174.099 38.7795 174.006 31.5451C174.006 29.6901 174.376 28.4844 176.499 28.7626C178.992 29.1336 181.669 27.9279 183.977 29.5974C184.069 30.1539 184.161 30.7104 184.161 31.3596C184.531 30.9886 184.992 30.6176 185.454 30.1539Z" fill="white"/>
<path d="M294.309 43.6841C294.309 45.3187 294.491 47.135 294.309 48.8605C294.126 50.9492 295.952 54.1277 294.309 54.6725C291.571 55.5807 287.92 56.1256 285.181 54.2185C283.721 53.2195 283.447 54.2185 282.717 54.4909C281.257 54.945 279.888 55.6715 278.427 55.8531C271.947 56.6704 267.84 54.0368 267.11 48.9513C266.379 43.8657 269.3 40.778 275.872 39.5975C277.515 39.325 279.158 39.1434 280.8 38.9618C282.261 38.6893 283.904 38.6893 284.543 36.9639C284.816 36.1465 284.36 35.42 283.721 35.0568C282.169 34.0578 280.07 33.6946 279.066 34.966C276.784 37.7812 273.864 36.6914 271.217 36.9639C268.205 37.2363 267.84 35.9649 268.935 33.5129C269.665 31.9691 270.76 30.6977 272.221 29.8804C273.316 29.3355 274.411 28.7906 275.598 28.609C287.372 26.9744 296.682 27.61 294.309 43.6841ZM280.253 50.1319C282.9 49.7686 284.634 48.4064 284.725 45.5004C284.725 44.683 284.908 43.3208 283.539 43.7749C281.348 44.5922 277.971 43.7749 277.423 47.2258C277.058 49.1329 278.427 49.9502 280.253 50.1319Z" fill="white"/>
<path d="M154.133 55.9957C145.782 55.9051 139.909 50.1973 140.001 42.0432C140.001 33.8891 146.149 28 154.684 28C163.218 28 169.091 33.8891 168.999 42.2244C168.815 50.5597 162.851 56.1769 154.133 55.9957ZM158.905 42.315C158.721 39.0533 158.629 35.6105 154.408 35.6105C150.462 35.6105 150.187 38.9627 150.279 41.862C150.279 44.8518 150.187 48.4759 154.408 48.5665C158.629 48.7477 158.629 45.1236 158.905 42.315Z" fill="white"/>
<path d="M235 41.8187C235 50.2729 229.2 55.9091 220.546 56C211.8 56 206 50.3638 206 42.0005C206 33.7281 212.076 27.9101 220.73 28.0011C229.108 28.0011 234.908 33.6372 235 41.8187ZM224.781 42.0005C224.689 38.8188 224.505 35.5462 220.546 35.4553C216.311 35.3644 216.127 38.9097 216.127 42.0005C216.127 45.0913 216.311 48.6366 220.546 48.5457C224.965 48.4548 224.597 44.7277 224.781 42.0005Z" fill="white"/>
<path d="M236 29.0248C236.554 28.8383 236.646 28.745 236.83 28.6518C246.519 27.9057 246.426 27.9057 248.918 37.2313C249.471 39.4695 249.379 41.8942 250.855 44.0391C251.962 39.7493 253.07 35.5527 254.177 31.4494C254.823 29.0248 262.942 26.8799 264.695 28.6518C265.341 29.3045 264.788 30.0506 264.603 30.7967C262.204 38.2572 259.805 45.8109 257.498 53.3647C256.945 55.1366 256.114 55.6961 254.269 55.7894C244.95 56.3489 244.95 56.4422 241.997 47.3963C239.968 41.2414 238.03 35.1797 236 29.0248Z" fill="white"/>
<path d="M301.531 27.7636C301.531 27.4892 301.62 27.1233 301.62 26.8489C301.8 20.72 304.048 18.982 309.983 20.5371C312.86 21.2689 311.421 23.5558 311.421 25.0194C311.511 27.3977 311.511 29.2272 314.658 28.7698C316.906 28.4039 316.996 30.0505 316.816 31.697C316.726 33.2521 317.446 35.4475 314.658 35.0816C311.601 34.7157 311.241 36.3622 311.421 38.832C311.601 40.936 311.511 43.1314 311.421 45.2353C311.421 46.7903 312.051 48.1625 313.579 48.071C318.435 47.888 316.726 51.547 316.636 53.7424C316.636 57.0355 313.759 55.7549 312.141 55.7549C303.689 55.9378 301.441 53.651 301.441 45.1438C301.441 42.5825 301.441 39.9297 301.441 37.3685C301.441 36.2708 301.531 34.8986 300.002 35.0816C296.495 35.539 297.215 33.0691 297.035 31.0567C296.675 27.8551 299.193 28.9528 300.631 28.4039C301.531 28.6784 301.71 28.3125 301.531 27.7636Z" fill="white"/>
<path d="M322.194 42.2105C322.194 38.891 322.281 35.4793 322.106 32.1598C322.019 29.6702 322.806 28.8403 325.081 29.0247C326.394 29.117 327.706 29.117 329.019 29.0247C331.207 28.8403 332.082 29.6702 331.994 32.0676C331.819 39.0754 331.819 46.0832 331.994 53.1833C332.082 55.4885 331.207 56.1339 329.194 55.9495C327.881 55.8573 326.569 55.8573 325.256 55.9495C322.894 56.2261 321.844 55.3962 322.019 52.7222C322.281 49.2183 322.194 45.7144 322.194 42.2105Z" fill="white"/>
<path d="M65 15.6452C62.5578 16.5484 63.01 18.8968 62.4673 20.7935C61.2915 24.5871 61.2915 28.9226 57.0402 31C54.9598 25.5806 51.8844 21.0645 47 17.7226C47.8141 12.8452 47.5427 7.87742 48.8995 3C55.6834 5.34839 61.0201 9.59355 65 15.6452Z" fill="#288E54"/>
<path d="M125.089 42.3238C125.089 38.9111 125.178 35.5905 125.089 32.1778C125 29.8718 125.624 28.765 128.033 29.0417C129.461 29.2262 130.977 29.1339 132.494 29.0417C134.457 28.8572 135.081 29.6874 134.992 31.7166C134.903 38.9111 134.903 46.1055 134.992 53.3C134.992 55.237 134.457 56.1594 132.494 55.9749C130.888 55.8827 129.193 55.8827 127.587 55.9749C125.624 56.1594 125 55.3293 125 53.3923C125.178 49.7028 125.089 46.0133 125.089 42.3238Z" fill="white"/>
<path d="M35.8822 77C38.6357 83.0837 41.0339 88.3251 43.5209 93.4729C44.6756 95.8128 43.6098 96 41.7445 96C37.0369 95.9064 32.4182 96 27 96C30.1088 89.6355 32.7734 83.7389 35.8822 77Z" fill="#AF0848"/>
<path d="M327.026 24.9314C324.94 24.845 322 25.9684 322 21.475C322 16.8089 325.224 18.1914 327.69 18.1914C330.06 18.105 332.905 17.0681 333 21.3886C333 25.7955 330.25 24.9314 327.026 24.9314Z" fill="white"/>
<path d="M130.263 24.9313C127.457 24.9313 124.915 25.7967 125.002 21.3835C125.09 16.7108 128.071 18.2684 130.263 18.1819C132.631 18.0088 134.998 17.4031 134.998 21.4701C135.086 25.9697 132.367 24.8448 130.263 24.9313Z" fill="white"/>
</g>
<defs>
<clipPath id="clip0_58_338">
<rect width="365" height="96" fill="white"/>
</clipPath>
</defs>
</svg>
