<svg width="17" height="17" viewBox="0 0 17 17" fill="none" xmlns="http://www.w3.org/2000/svg">
<g id="cib:tiktok">
<path id="Vector" d="M8.87898 0.0143445C9.8205 0 10.7566 0.00850045 11.6917 0C11.7483 1.08434 12.1444 2.18887 12.9504 2.9555C13.7549 3.74126 14.8928 4.10094 16 4.2226V7.07503C14.9624 7.04156 13.92 6.82905 12.9785 6.38915C12.5684 6.20639 12.1864 5.97104 11.8125 5.73037C11.8077 7.80023 11.8212 9.86743 11.799 11.9288C11.7429 12.9191 11.4111 13.9046 10.8262 14.7207C9.88525 16.0791 8.25202 16.9648 6.57455 16.9924C5.54563 17.0503 4.51778 16.774 3.641 16.2651C2.18799 15.4214 1.16554 13.877 1.01662 12.2194C0.997861 11.8683 0.994981 11.5166 1.00799 11.1653C1.13748 9.81749 1.81462 8.52808 2.86567 7.65094C4.057 6.62929 5.72584 6.14264 7.28838 6.43059C7.30295 7.47987 7.26032 8.52808 7.26032 9.57735C6.5465 9.34997 5.71235 9.41372 5.08862 9.84034C4.63229 10.1363 4.28744 10.5719 4.10718 11.0798C3.95826 11.439 4.00089 11.8379 4.00952 12.2194C4.18056 13.3818 5.31578 14.3589 6.52761 14.2531C7.33101 14.2446 8.10095 13.7856 8.51964 13.1135C8.65507 12.8782 8.80668 12.6375 8.81478 12.3607C8.88546 11.0936 8.8574 9.83184 8.86603 8.56474C8.87197 5.70912 8.8574 2.86146 8.87952 0.0148758L8.87898 0.0143445Z" fill="white"/>
</g>
</svg>
