<svg width="17" height="17" viewBox="0 0 17 17" fill="none" xmlns="http://www.w3.org/2000/svg">
<g id="akar-icons:vk-fill">
<path id="Vector" fill-rule="evenodd" clip-rule="evenodd" d="M16.6101 4.67714C16.7276 4.28714 16.6101 4 16.047 4H14.1876C13.7145 4 13.4963 4.24786 13.378 4.52143C13.378 4.52143 12.4324 6.80429 11.093 8.28714C10.6595 8.71714 10.4626 8.85357 10.226 8.85357C10.1077 8.85357 9.92992 8.71714 9.92992 8.32643V4.67714C9.92992 4.20857 9.79959 4 9.40576 4H6.48182C6.18645 4 6.00867 4.21714 6.00867 4.42357C6.00867 4.86714 6.67873 4.97 6.74744 6.21857V8.93143C6.74744 9.52643 6.63907 9.63429 6.40249 9.63429C5.77209 9.63429 4.23858 7.34071 3.32839 4.71643C3.15202 4.20571 2.97352 4 2.49824 4H0.637487C0.106248 4 0 4.24786 0 4.52143C0 5.00857 0.630403 7.42857 2.93598 10.6293C4.47303 12.815 6.63694 14 8.60819 14C9.79038 14 9.93629 13.7371 9.93629 13.2836V11.6314C9.93629 11.105 10.0482 11 10.4229 11C10.6992 11 11.1716 11.1371 12.2752 12.1907C13.536 13.44 13.7435 14 14.4532 14H16.3126C16.8438 14 17.1101 13.7371 16.9571 13.2171C16.7886 12.7 16.1865 11.9493 15.3882 11.0586C14.9547 10.5514 14.3045 10.005 14.1069 9.73143C13.8313 9.38071 13.91 9.22429 14.1069 8.91214C14.1069 8.91214 16.3735 5.75071 16.6094 4.67714H16.6101Z" fill="white"/>
</g>
</svg>
